Motion_pl02
version=1
nRows=16
nColumns=43
inDegrees=yes
endheader
time	pelvis_tilt	pelvis_list	pelvis_rotation	pelvis_tx	pelvis_ty	pelvis_tz	hip_flexion_r	hip_adduction_r	hip_rotation_r	knee_angle_r	ankle_angle_r	subtalar_angle_r	mtp_angle_r	hip_flexion_l	hip_adduction_l	hip_rotation_l	knee_angle_l	ankle_angle_l	subtalar_angle_l	mtp_angle_l	lumbar_extension	lumbar_bending	lumbar_rotation	neck_flexion	neck_lateral_bending	neck_rotation	arm_flex_r	arm_add_r	arm_rot_r	elbow_flex_r	pro_sup_r	wrist_flex_r	wrist_dev_r	hand_finger_flex_r	arm_flex_l	arm_add_l	arm_rot_l	elbow_flex_l	pro_sup_l	wrist_flex_l	wrist_dev_l	hand_finger_flex_l
      1.49250000	      0.76789678	     -4.15545975	     88.04963504	      0.01108349	      0.57248186	      0.40522757	     80.94019151	     -5.18981487	     -0.32847701	   -123.32264272	     22.17175189	      7.71564423	     24.83085477	     80.82070105	     -8.28481921	      3.90828019	   -122.94547974	     16.76068528	     19.75735520	     45.12392557	    -61.68095305	     -0.58394110	      1.89727174	     35.30977400	      0.07711512	     -1.76095469	     78.95033886	    -37.81732470	     22.38677497	     70.09671735	    118.81942438	     21.27448579	    -13.28127885	    -14.03721815	     67.68652928	    -39.24748832	     14.53344934	     58.63017767	    123.67110704	    -29.66580714	     -9.93718365	    -16.25312008
      1.49500000	      0.84236934	     -4.03868493	     87.99216422	      0.01116860	      0.57288280	      0.40457117	     80.71520672	     -5.14710638	     -0.40634047	   -123.30223107	     22.24624100	      7.79368297	     24.91430015	     80.63279308	     -8.35333101	      3.98502659	   -122.96510460	     16.74269783	     19.72453132	     44.96442052	    -61.68438945	     -0.56158784	      1.96280450	     35.43312151	     -0.12023159	     -1.47918065	     78.54455926	    -37.73601987	     21.71366786	     70.11820215	    118.54774181	     21.17573964	    -13.46125019	    -13.86985626	     67.42003108	    -39.29068804	     14.24305487	     58.54498542	    123.68553638	    -29.73545633	     -9.94116135	    -16.19916445
      1.49750000	      0.84956636	     -4.02232467	     87.97742786	      0.01116537	      0.57304740	      0.40438852	     80.68625542	     -5.15817857	     -0.41342550	   -123.29335348	     22.24162291	      7.79638153	     24.91671980	     80.59439083	     -8.35974869	      3.99445153	   -122.95982665	     16.73954288	     19.72431484	     44.95781970	    -61.60619946	     -0.56715369	      1.95109006	     35.45237059	     -0.11050036	     -1.47783890	     78.54446563	    -37.87099101	     21.64501934	     70.05435909	    118.55160995	     21.17206067	    -13.44326687	    -13.86045225	     67.36061707	    -39.41142899	     14.19326876	     58.44598835	    123.67808893	    -29.73423170	     -9.91657792	    -16.19490224
      1.50000000	      0.86331021	     -4.01704103	     87.93681230	      0.01111488	      0.57327495	      0.40396055	     80.62293671	     -5.18076310	     -0.44057947	   -123.27648941	     22.23026718	      7.80933260	     24.92514210	     80.51307225	     -8.37919475	      4.00134015	   -122.95471349	     16.73685534	     19.72771826	     44.93966654	    -61.48759221	     -0.57572081	      1.94229893	     35.51261246	     -0.10308596	     -1.45713011	     78.46177743	    -37.96028862	     21.56095786	     69.99977742	    118.53269642	     21.17572486	    -13.43571617	    -13.82863624	     67.22349243	    -39.51469700	     14.14565430	     58.30901789	    123.66667692	    -29.72529677	     -9.88024299	    -16.18095782
      1.50250000	      0.86410437	     -4.01066636	     87.93294197	      0.01115294	      0.57347539	      0.40380143	     80.58836474	     -5.18092158	     -0.44618710	   -123.27252840	     22.22531732	      7.81280647	     24.92662088	     80.47674914	     -8.38709381	      4.00905584	   -122.95386248	     16.73445293	     19.72772929	     44.93613188	    -61.41067013	     -0.57921751	      1.92995385	     35.52397149	     -0.10665719	     -1.44998238	     78.47308971	    -38.09323743	     21.47828168	     69.93952179	    118.53157757	     21.16604172	    -13.42007090	    -13.82490731	     67.18247502	    -39.62796999	     14.09315917	     58.23107485	    123.65687247	    -29.72923002	     -9.85735106	    -16.17944465
      1.50500000	      0.91411886	     -3.97514921	     87.84755028	      0.01131553	      0.57385082	      0.40324521	     80.45843488	     -5.10966093	     -0.49881669	   -123.21516010	     22.25345506	      7.92369717	     25.01743059	     80.34784451	     -8.48472487	      4.06427279	   -122.93677559	     16.82415836	     19.78032187	     44.81489495	    -61.34533366	     -0.60782419	      1.97069288	     35.70487063	     -0.24042920	     -1.13291890	     78.02392496	    -37.92670709	     20.67081453	     69.93277356	    118.19685554	     21.12647474	    -13.45612336	    -13.56986766	     66.88101095	    -39.68369594	     13.77779737	     58.23693209	    123.56245832	    -29.78383307	     -9.73888582	    -16.09458341
      1.50750000	      0.92091780	     -3.95730999	     87.84391287	      0.01130220	      0.57406257	      0.40307764	     80.41451305	     -5.10482524	     -0.49266172	   -123.19729453	     22.24985985	      7.92430414	     25.02040455	     80.31332373	     -8.48839195	      4.06324144	   -122.92638421	     16.81965464	     19.78414971	     44.80907622	    -61.26333102	     -0.59855364	      1.95573886	     35.72679764	     -0.22651602	     -1.13220886	     77.99439481	    -38.06836307	     20.61101397	     69.86020579	    118.20123031	     21.12993845	    -13.43028342	    -13.55481178	     66.79309509	    -39.80594300	     13.74178415	     58.13556157	    123.55454954	    -29.77857209	     -9.71114116	    -16.08763262
      1.51000000	      0.92888630	     -3.95115380	     87.83537584	      0.01116122	      0.57425827	      0.40256836	     80.31952099	     -5.09880979	     -0.47538994	   -123.17317424	     22.25195122	      7.92661051	     25.02939893	     80.22934968	     -8.48067340	      4.06828865	   -122.92282336	     16.81102618	     19.79411756	     44.79605745	    -61.13363631	     -0.57976608	      1.93799353	     35.77827563	     -0.21121084	     -1.11542293	     77.89050431	    -38.16456315	     20.53837710	     69.80514033	    118.18238337	     21.14398034	    -13.40667401	    -13.51716678	     66.62758158	    -39.90719196	     13.72691569	     58.01913787	    123.54148725	    -29.76403551	     -9.66862108	    -16.07087417
      1.51250000	      0.93345972	     -3.92959611	     87.83764470	      0.01109742	      0.57452869	      0.40215288	     80.22528164	     -5.09588866	     -0.45787632	   -123.15198072	     22.26931847	      7.93261683	     25.04377328	     80.15119809	     -8.46103800	      4.07959137	   -122.91621539	     16.80506697	     19.80838551	     44.77944459	    -61.03620742	     -0.55950572	      1.91459292	     35.82749909	     -0.21642635	     -1.07557347	     77.76963323	    -38.25343989	     20.39965845	     69.75206843	    118.13679919	     21.15015594	    -13.38485790	    -13.46918020	     66.46714292	    -40.01522501	     13.69174831	     57.92172957	    123.51668505	    -29.75649530	     -9.61156238	    -16.05200857
      1.51500000	      0.93054159	     -3.82024291	     87.92800827	      0.01096116	      0.57492451	      0.40169142	     80.01460605	     -5.19254452	     -0.45820915	   -123.15573891	     22.42933574	      7.99603443	     25.13827546	     79.98934245	     -8.36991335	      4.10188135	   -122.90925597	     16.81069571	     19.90094978	     44.68859732	    -61.06559299	     -0.47663428	      1.81469677	     35.94666120	     -0.29749279	     -0.81412741	     77.37200896	    -38.11490229	     19.61486356	     69.78415881	    117.79183137	     21.15669249	    -13.33951121	    -13.18592306	     66.24689204	    -40.16367092	     13.50480361	     58.01002537	    123.37351933	    -29.76772102	     -9.38061933	    -15.95995912
      1.51750000	      0.92666799	     -3.82525432	     87.92299262	      0.01090484	      0.57530241	      0.40138663	     79.93962553	     -5.19974382	     -0.45498148	   -123.09541132	     22.41795379	      8.00696956	     25.14536914	     79.91803837	     -8.34599149	      4.11230737	   -122.85788250	     16.80194711	     19.90885972	     44.67574392	    -60.95584726	     -0.47615790	      1.79383701	     35.98992786	     -0.26422157	     -0.81285807	     77.30795179	    -38.22858050	     19.55514440	     69.70093935	    117.78775099	     21.17839818	    -13.29488935	    -13.13910502	     66.11115063	    -40.26665891	     13.50350407	     57.91556108	    123.36135397	    -29.74841763	     -9.34030791	    -15.94126706
      1.52000000	      0.90982501	     -3.72816017	     88.05766446	      0.01072114	      0.57586551	      0.40097148	     79.73789864	     -5.38507185	     -0.46044240	   -123.06939432	     22.46303021	      8.13902252	     25.25619067	     79.74526890	     -8.19501933	      4.13262600	   -122.80229880	     16.78022896	     20.02631585	     44.55199038	    -60.98705516	     -0.38138481	      1.62433736	     36.17562820	     -0.18910396	     -0.65753130	     76.99484450	    -38.07186457	     18.87461813	     69.68549474	    117.47406922	     21.32686303	    -13.12704333	    -12.65195940	     65.93375399	    -40.51550259	     13.44148888	     58.02494139	    123.21173051	    -29.66233063	     -9.09107827	    -15.77816053
      1.52250000	      0.91040480	     -3.72303337	     88.04304511	      0.01066085	      0.57623639	      0.40077973	     79.68503731	     -5.38583763	     -0.45482751	   -123.02213643	     22.45475008	      8.14126578	     25.25875451	     79.69442959	     -8.18002584	      4.13943305	   -122.75845734	     16.77314188	     20.02802865	     44.54602925	    -60.89782240	     -0.38432780	      1.61404504	     36.19650363	     -0.18393746	     -0.65710254	     76.94508413	    -38.21448803	     18.82980914	     69.60120104	    117.48083229	     21.33399411	    -13.09644885	    -12.63130254	     65.81159804	    -40.62553718	     13.42960649	     57.91871805	    123.20243998	    -29.65330179	     -9.06246664	    -15.76960670
      1.52500000	      0.90700833	     -3.72767951	     88.03103197	      0.01058946	      0.57668526	      0.40043864	     79.60027307	     -5.40369047	     -0.45536899	   -122.95932936	     22.44184472	      8.15007329	     25.26445852	     79.60594352	     -8.16715346	      4.14579222	   -122.71093362	     16.75847711	     20.03516991	     44.53615815	    -60.78249702	     -0.37719934	      1.59950410	     36.23335925	     -0.18657350	     -0.64682208	     76.84574099	    -38.32827601	     18.77126874	     69.53177578	    117.46731057	     21.35067672	    -13.07177994	    -12.59361286	     65.64073941	    -40.73254773	     13.43547084	     57.80229435	    123.18722162	    -29.63590807	     -9.02933092	    -15.75365224
      1.52750000	      0.92245315	     -3.65366533	     88.10917346	      0.01045514	      0.57727079	      0.40004909	     79.42396094	     -5.53279471	     -0.50033077	   -122.91588988	     22.43420942	      8.24578480	     25.33094228	     79.46461693	     -8.12335279	      4.14798243	   -122.66126561	     16.71999275	     20.11262054	     44.47474110	    -60.78293321	     -0.28291286	      1.51590531	     36.31829961	     -0.29358890	     -0.50454916	     76.54323915	    -38.27967894	     18.24078539	     69.56671299	    117.21375770	     21.42465252	    -13.04289091	    -12.31665834	     65.42374605	    -40.95943069	     13.39278095	     57.81289523	    123.06269969	    -29.59894619	     -8.97414925	    -15.65629530
      1.53000000	      0.91711005	     -3.65590822	     88.09050763	      0.01044900	      0.57775560	      0.39979947	     79.35482632	     -5.53788142	     -0.49763164	   -122.84707185	     22.42495099	      8.25340773	     25.33668865	     79.38610560	     -8.08133313	      4.18831884	   -122.60547988	     16.70855356	     20.11513236	     44.46697736	    -60.67659885	     -0.30131208	      1.50093302	     36.36451351	     -0.27442574	     -0.50031285	     76.45006656	    -38.41274733	     18.18741171	     69.45966819	    117.21526493	     21.44413042	    -12.99947195	    -12.28092368	     65.26711071	    -41.05731905	     13.39123966	     57.70118083	    123.04192607	    -29.58343852	     -8.94807397	    -15.64122727
